<?xml version="1.0" encoding="UTF-8" standalone="no"?><!DOCTYPE svg PUBLIC "-//W3C//DTD SVG 1.1//EN" "http://www.w3.org/Graphics/SVG/1.1/DTD/svg11.dtd"><svg width="100%" height="100%" viewBox="0 0 191 151" version="1.1" xmlns="http://www.w3.org/2000/svg" xmlns:xlink="http://www.w3.org/1999/xlink" xml:space="preserve" xmlns:serif="http://www.serif.com/" style="fill-rule:evenodd;clip-rule:evenodd;stroke-linecap:round;stroke-linejoin:round;stroke-miterlimit:1.5;"><g id="favicon"><g><path d="M100.316,3.626c0,0 28.769,0 53.159,0c8.892,0 17.419,3.532 23.706,9.819c6.287,6.287 9.819,14.814 9.819,23.706c0,22.813 0,52.885 0,75.698c0,8.892 -3.532,17.419 -9.819,23.706c-6.287,6.287 -14.814,9.819 -23.706,9.819c-24.39,0 -53.159,0 -53.159,0l0,-142.748Z" style="fill:#2a2c38;stroke:#2a2c38;stroke-width:8px;"/><path d="M100.316,3.626c0,0 -34.99,0 -62.791,0c-8.892,0 -17.419,3.532 -23.706,9.819c-6.287,6.287 -9.819,14.814 -9.819,23.706c0,22.813 0,52.885 0,75.698c0,8.892 3.532,17.419 9.819,23.706c6.287,6.287 14.814,9.819 23.706,9.819c27.801,0 62.791,0 62.791,0l0,-142.748Z" style="fill:#fff;stroke:#2a2c38;stroke-width:8px;"/></g><g><text x="106.134px" y="128.613px" style="font-family:'ADAM.CGPRO', 'ADAM.CG PRO';font-size:142.7px;fill:#fff;">S</text><text x="14.634px" y="128.613px" style="font-family:'ADAM.CGPRO', 'ADAM.CG PRO';font-size:142.7px;fill:#2a2c38;">S</text></g></g></svg>