<?xml version="1.0" encoding="UTF-8"?>
<svg width="178px" height="97px" viewBox="0 0 178 97" version="1.1" xmlns="http://www.w3.org/2000/svg" xmlns:xlink="http://www.w3.org/1999/xlink">
    <!-- Generator: Sketch 49.1 (51147) - http://www.bohemiancoding.com/sketch -->
    <title>logo2</title>
    <desc>Created with Sketch.</desc>
    <defs></defs>
    <g id="Page-1" stroke="none" stroke-width="1" fill="none" fill-rule="evenodd">
        <g id="Artboard-2" transform="translate(-182.000000, -35.000000)" fill="#FFFFFF">
            <g id="logo2" transform="translate(174.000000, 21.000000)">
                <path d="M3.46579355,83.9010033 C2.06579355,82.2010033 2.76579355,81.1010033 4.16579355,80.6010033 C4.96579355,80.4010033 6.06579355,80.3010033 7.26579355,80.3010033 C10.1657936,80.3010033 12.9657936,81.1010033 15.0657936,82.8010033 C18.9657936,86.0010033 25.5657936,91.0010033 31.3657936,91.0010033 C33.5657936,91.0010033 35.5657936,90.5010033 36.6657936,89.4010033 C38.1657936,87.9010033 37.6657936,86.1010033 36.5657936,85.2010033 C29.3657936,79.6010033 15.4657936,74.2010033 15.4657936,64.0010033 C15.4657936,50.4010033 31.0657936,38.5010033 40.0657936,34.7010033 C43.3657936,33.3010033 45.4657936,33.0010033 47.7657936,33.0010033 C50.1657936,33.0010033 52.1657936,33.7010033 53.8657936,35.1010033 C56.6657936,37.7010033 58.4657936,41.0010033 59.1657936,43.7010033 C60.1657936,47.8010033 57.6657936,51.8010033 56.1657936,54.0010033 C53.7657936,57.2010033 50.8657936,62.4010033 49.4657936,64.8010033 C48.5657936,66.4010033 47.4657936,67.2010033 45.5657936,65.2010033 C44.1657936,63.8010033 43.1657936,62.1010033 43.1657936,59.8010033 C43.1657936,57.6010033 44.4657936,53.8010033 47.7657936,49.4010033 C50.2657936,45.7010033 52.9657936,41.3010033 51.5657936,40.3010033 C47.8657936,37.6010033 25.9657936,52.3010033 25.4657936,63.8010033 C25.1657936,70.4010033 38.8657936,76.1010033 42.7657936,78.9010033 C44.6657936,80.3010033 45.7657936,82.1010033 45.7657936,84.0010033 C45.7657936,86.3010033 44.4657936,88.9010033 41.8657936,92.0010033 C39.2657936,95.0010033 34.3657936,97.1010033 28.3657936,97.1010033 C21.0657936,97.1010033 11.3657936,93.0010033 3.46579355,83.9010033 Z M73.3466371,80.7682671 C73.6914674,76.8120839 75.1293218,72.6816588 77.4657936,68.7010033 C81.2657936,62.1010033 87.5657936,56.2010033 93.8657936,55.7010033 C96.8657936,55.4010033 99.5657936,56.9010033 101.365794,59.2010033 C102.165794,60.2010033 102.665794,60.7010033 103.065794,61.1010033 C104.965794,63.1010033 106.265794,65.1010033 106.265794,71.4010033 C111.165794,70.0010033 117.465794,63.1010033 121.965794,56.5010033 C123.265794,54.8010033 124.665794,54.8010033 125.765794,56.3010033 C126.665794,57.8010033 127.165794,59.6010033 127.165794,61.2010033 C127.165794,61.7010033 127.165794,62.4010033 127.065794,63.0010033 C131.265794,59.1010033 136.565794,55.7010033 139.565794,55.7010033 C142.265794,55.7010033 145.165794,59.2010033 145.165794,63.0010033 C145.165794,64.1010033 144.965794,65.5010033 144.265794,67.0010033 C143.265794,68.9010033 141.865794,71.6010033 140.265794,74.1010033 C138.565794,76.8010033 136.165794,81.3010033 135.165794,83.4010033 C134.165794,85.6010033 133.665794,87.6010033 133.665794,89.2010033 C133.665794,91.2010033 134.365794,92.5010033 135.865794,92.5010033 C138.845732,92.5010033 144.135771,86.3099307 147.8276,80.0567307 C148.187368,77.191122 149.151628,74.1756038 150.765794,71.1010033 C155.965794,60.5010033 164.065794,55.2010033 169.865794,55.2010033 C171.265794,55.2010033 172.365794,55.4010033 173.365794,56.0010033 C176.165794,57.6010033 178.165794,59.2010033 179.565794,61.2010033 C180.165794,62.1010033 180.565794,63.6010033 180.565794,64.9010033 C180.565794,70.9010033 173.865794,81.4010033 165.065794,81.4010033 C162.665794,81.4010033 160.265794,80.7010033 157.965794,79.2010033 C157.365794,81.2010033 157.065794,83.3010033 157.065794,85.1010033 C157.065794,89.5010033 158.865794,92.6010033 161.865794,92.6010033 C169.465794,92.6010033 176.165794,85.2010033 180.265794,79.0010033 C181.365794,77.4010033 182.665794,77.2010033 183.465794,79.2010033 C183.765794,80.1010033 183.865794,83.0010033 182.065794,85.7010033 C177.865794,91.8010033 169.865794,96.5010033 162.065794,96.6010033 C155.486372,96.6717498 151.009077,93.6393572 148.952589,89.0264148 C145.500759,93.3598533 139.61575,96.7010033 134.465794,96.7010033 C127.865794,96.7010033 124.865794,93.3010033 124.865794,88.1010033 C124.865794,86.3010033 125.265794,84.1010033 126.165794,81.5010033 C127.965794,76.5010033 131.265794,71.3010033 133.565794,67.3010033 C134.365794,65.9010033 136.365794,61.8010033 136.065794,61.8010033 C135.165794,61.8010033 130.765794,64.4010033 125.165794,70.6010033 C120.065794,76.2010033 115.065794,86.3010033 111.165794,95.1010033 C110.565794,96.4010033 109.165794,97.4010033 107.565794,95.6010033 C106.265794,94.2010033 105.465794,92.5010033 105.465794,90.2010033 C105.465794,88.8010033 105.865794,86.9010033 106.565794,85.0010033 C107.465794,82.4010033 109.265794,78.1010033 111.365794,74.0010033 C109.265794,75.0010033 108.065794,75.0010033 105.565794,75.0010033 C102.965794,84.8010033 95.5657936,96.3010033 85.5657936,96.3010033 C82.3657936,96.3010033 78.6657936,95.1010033 75.9657936,91.4010033 C75.4240759,90.6185223 74.9638744,89.7998119 74.585189,88.9503238 C71.5844284,92.4588932 66.6246219,96.5010033 60.8657936,96.5010033 C55.5657936,96.5010033 50.9657936,92.2010033 50.9657936,85.3010033 C50.9657936,83.1010033 51.5657936,80.3010033 52.9657936,77.0010033 C54.9657936,72.1010033 58.7657936,64.2010033 62.7657936,57.0010033 C59.6657936,56.6010033 57.8657936,55.5010033 57.0657936,54.3010033 C55.6657936,52.2010033 56.6657936,51.2010033 58.9657936,51.3010033 C61.2657936,51.4010033 63.9657936,51.3010033 66.1657936,51.1010033 C69.2657936,45.7010033 71.3657936,42.4010033 73.6657936,39.1010033 C75.1657936,36.9010033 76.3657936,37.0010033 77.4657936,38.9010033 C78.1657936,40.1010033 78.5657936,41.8010033 78.5657936,43.0010033 C78.5657936,44.8010033 78.1657936,47.1010033 76.9657936,49.9010033 C80.0657936,50.3010033 81.7657936,51.9010033 82.4657936,53.1010033 C83.4657936,54.9010033 82.7657936,56.1010033 80.3657936,55.8010033 C78.5657936,55.6010033 75.9657936,55.8010033 73.7657936,56.1010033 C69.9657936,62.6010033 64.2657936,72.5010033 60.7657936,80.1010033 C59.5657936,82.8010033 58.9657936,85.4010033 58.9657936,87.6010033 C58.9657936,90.6010033 59.9657936,92.7010033 61.6657936,92.7010033 C65.2371753,92.7010033 69.8987081,87.4179635 73.3466371,80.7682671 Z M98.4657936,69.9010033 C99.4657936,67.6010033 99.8657936,65.2010033 99.8657936,63.9010033 C99.8657936,62.4010033 99.0657936,61.8010033 98.3657936,61.8010033 C97.7657936,61.8010033 96.8657936,62.6010033 96.8657936,64.2010033 C96.8657936,66.0010033 97.3657936,68.6010033 98.4657936,69.9010033 Z M80.9657936,86.9010033 C80.9657936,89.8010033 81.8657936,91.3010033 83.2657936,91.3010033 C85.8657936,91.2010033 90.1657936,87.6010033 93.6657936,80.9010033 C95.1657936,78.1010033 96.3657936,75.2010033 97.1657936,73.1010033 C94.4657936,71.4010033 91.8657936,68.1010033 90.9657936,65.3010033 C88.8657936,67.4010033 86.8657936,70.2010033 85.1657936,73.0010033 C82.5657936,77.5010033 80.9657936,83.1010033 80.9657936,86.9010033 Z M173.065794,60.9010033 C171.565794,59.7010033 164.165794,65.8010033 159.365794,75.4010033 C160.165794,75.9010033 160.865794,76.1010033 161.565794,76.1010033 C163.965794,76.1010033 167.165794,73.1010033 169.165794,70.4010033 C172.065794,66.5010033 174.165794,61.8010033 173.065794,60.9010033 Z" id="Stone" transform="translate(93.169663, 65.051003) rotate(-12.000000) translate(-93.169663, -65.051003) "></path>
                <path d="M115.064762,39.2703243 C113.561332,40.9412661 111.428201,42.1478311 109.319201,42.1478311 C106.349201,42.1478311 104.999201,40.6628311 104.999201,38.3228311 C104.999201,35.4878311 107.204201,31.5728311 108.914201,28.9178311 C109.769201,27.4328311 110.444201,26.3528311 110.129201,26.3528311 C109.724201,26.3528311 105.449201,29.1878311 103.064201,33.0578311 C101.534201,35.5778311 99.9142007,38.6828311 98.8342007,41.3828311 C98.4742007,42.1928311 97.7992007,42.3278311 97.2592007,41.6528311 C96.5392007,40.7978311 95.9092007,39.7178311 97.0342007,36.7478311 C98.8342007,32.0228311 107.744201,16.9478311 111.389201,12.2678311 C112.109201,11.3678311 112.784201,11.5478311 113.189201,12.4478311 C113.414201,12.9428311 113.549201,13.5278311 113.549201,14.1578311 C113.549201,15.3728311 113.009201,17.0378311 111.929201,18.9278311 C111.029201,20.4128311 108.239201,24.5978311 107.789201,25.2278311 C109.139201,24.2378311 110.714201,23.6978311 111.569201,23.6978311 C112.874201,23.6978311 114.179201,25.0928311 114.179201,26.8478311 C114.179201,27.4778311 114.044201,28.1078311 113.684201,28.7378311 C111.209201,33.1478311 110.084201,35.0378311 109.589201,36.1178311 C109.184201,37.1078311 109.004201,38.0528311 109.004201,38.7728311 C109.004201,39.7178311 109.229201,40.3028311 109.859201,40.3028311 C111.434201,40.3028311 113.819201,37.1078311 115.169201,34.3628311 C115.260823,34.1664969 115.38671,34.0196553 115.528036,33.9289504 C115.929915,32.8714933 116.500303,31.7890774 117.239201,30.7628311 C120.839201,25.5878311 124.529201,23.4728311 126.824201,23.4728311 C128.444201,23.4728311 129.434201,24.2828311 129.839201,25.4528311 L130.694201,24.0578311 C131.234201,23.1578311 131.999201,23.1128311 132.539201,23.7428311 C133.304201,24.6428311 133.709201,26.6228311 132.539201,28.9628311 C131.369201,31.4378311 127.589201,36.3428311 127.589201,39.3578311 C127.589201,40.0328311 127.769201,40.4378311 128.219201,40.4378311 C129.666582,40.4378311 131.616858,37.9952028 133.07513,35.3885814 C133.091055,35.3467304 133.107408,35.3048121 133.124201,35.2628311 C134.249201,32.4728311 136.724201,27.5228311 139.289201,23.9678311 C139.829201,23.2478311 140.549201,23.1578311 140.999201,23.7878311 C141.359201,24.2828311 141.899201,25.3178311 141.899201,26.0828311 C141.899201,27.1628311 141.359201,28.5128311 140.324201,30.1778311 C138.794201,32.6078311 137.714201,34.6778311 136.769201,36.7928311 C136.409201,37.7378311 136.229201,38.5928311 136.229201,39.2678311 C136.229201,39.8078311 136.274201,40.1228311 136.634201,40.1228311 C137.804201,40.1228311 139.289201,37.7378311 141.224201,34.5428311 C143.249201,31.2128311 144.149201,29.4578311 145.004201,27.9278311 C145.814201,26.3978311 146.624201,25.0028311 147.434201,23.9678311 C148.019201,23.2028311 148.649201,23.1578311 149.144201,23.6528311 C150.359201,24.9578311 150.359201,26.7578311 149.279201,28.9628311 C148.559201,30.4478311 146.624201,33.1478311 145.004201,36.6128311 C144.464201,37.6928311 144.194201,38.6378311 144.194201,39.2678311 C144.194201,39.8978311 144.374201,40.2578311 144.779201,40.2578311 C146.084201,40.2578311 148.514201,37.4678311 150.854201,33.4628311 C151.709201,25.4528311 155.399201,23.4278311 156.209201,23.4278311 C157.019201,23.4278311 157.334201,24.1928311 157.154201,25.2728311 C156.884201,26.9378311 156.119201,28.9178311 153.284201,33.6878311 C150.224201,38.7728311 146.984201,42.2378311 143.834201,42.1478311 C142.034201,42.1028311 140.909201,40.8428311 140.594201,39.3578311 C139.334201,40.7078311 137.534201,41.9228311 135.599201,41.9228311 C134.10644,41.9228311 133.196514,41.1606623 132.790315,40.0160446 C131.421564,41.3123031 129.659188,42.2378311 127.949201,42.2378311 C125.699201,42.2378311 124.394201,41.0678311 124.034201,39.4028311 C122.729201,40.6628311 120.704201,42.0578311 118.904201,42.0578311 C116.899116,42.0578311 115.586999,40.9542168 115.064762,39.2703243 Z M76.4242007,36.4328311 C75.7942007,35.6678311 76.1092007,35.1728311 76.7392007,34.9478311 C77.0992007,34.8578311 77.5942007,34.8128311 78.1342007,34.8128311 C79.4392007,34.8128311 80.6992007,35.1728311 81.6442007,35.9378311 C83.3992007,37.3778311 86.3692007,39.6278311 88.9792007,39.6278311 C89.9692007,39.6278311 90.8692007,39.4028311 91.3642007,38.9078311 C92.0392007,38.2328311 91.8142007,37.4228311 91.3192007,37.0178311 C88.0792007,34.4978311 81.8242007,32.0678311 81.8242007,27.4778311 C81.8242007,21.3578311 88.8442007,16.0028311 92.8942007,14.2928311 C94.3792007,13.6628311 95.3242007,13.5278311 96.3592007,13.5278311 C97.4392007,13.5278311 98.3392007,13.8428311 99.1042007,14.4728311 C100.364201,15.6428311 101.174201,17.1278311 101.489201,18.3428311 C101.939201,20.1878311 100.814201,21.9878311 100.139201,22.9778311 C99.0592007,24.4178311 97.7542007,26.7578311 97.1242007,27.8378311 C96.7192007,28.5578311 96.2242007,28.9178311 95.3692007,28.0178311 C94.7392007,27.3878311 94.2892007,26.6228311 94.2892007,25.5878311 C94.2892007,24.5978311 94.8742007,22.8878311 96.3592007,20.9078311 C97.4842007,19.2428311 98.6992007,17.2628311 98.0692007,16.8128311 C96.4042007,15.5978311 86.5492007,22.2128311 86.3242007,27.3878311 C86.1892007,30.3578311 92.3542007,32.9228311 94.1092007,34.1828311 C94.9642007,34.8128311 95.4592007,35.6228311 95.4592007,36.4778311 C95.4592007,37.5128311 94.8742007,38.6828311 93.7042007,40.0778311 C92.5342007,41.4278311 90.3292007,42.3728311 87.6292007,42.3728311 C84.3442007,42.3728311 79.9792007,40.5278311 76.4242007,36.4328311 Z M119.489201,40.0778311 C120.974201,40.0778311 123.044201,37.3328311 125.249201,33.5528311 C127.004201,30.4928311 127.814201,28.2878311 127.814201,27.1178311 C127.814201,26.5778311 127.724201,26.2628311 127.274201,26.2628311 C126.374201,26.2628311 123.269201,29.0978311 120.974201,32.7878311 C119.624201,34.9028311 118.859201,37.2878311 118.859201,38.7278311 C118.859201,39.5378311 119.039201,40.0778311 119.489201,40.0778311 Z M162.914201,23.9228311 C163.319201,24.5978311 163.499201,25.3178311 163.499201,26.0378311 C163.499201,26.3528311 163.499201,26.6678311 163.454201,26.9378311 C165.389201,25.1378311 167.549201,23.6528311 169.169201,23.6528311 C170.474201,23.6528311 171.689201,25.2278311 171.689201,26.9378311 C171.689201,27.9278311 170.879201,29.3678311 169.439201,31.8878311 C167.999201,34.1828311 166.469201,37.1528311 166.469201,38.8178311 C166.469201,39.7628311 166.784201,40.3478311 167.369201,40.3478311 C168.899201,40.3478311 171.239201,37.4228311 172.859201,34.4078311 C173.309201,33.5528311 173.939201,33.5978311 174.344201,34.2278311 C174.704201,34.7678311 174.749201,36.1628311 174.119201,37.3778311 C172.859201,39.8528311 169.574201,42.2378311 166.874201,42.2378311 C163.859201,42.2378311 162.554201,40.7078311 162.554201,38.3678311 C162.554201,35.9378311 164.624201,31.7978311 166.379201,29.0078311 C167.324201,27.5228311 168.044201,26.3528311 167.729201,26.3528311 C167.324201,26.3528311 165.119201,27.6128311 162.644201,30.4028311 C160.169201,33.0128311 158.144201,37.4228311 156.299201,41.4728311 C155.984201,42.1928311 155.399201,42.4628311 154.679201,41.7428311 C154.049201,41.1128311 153.689201,40.3478311 153.689201,39.2678311 C153.689201,38.5928311 153.824201,37.8278311 154.094201,36.9278311 C154.949201,34.4078311 158.414201,28.1078311 161.204201,23.9228311 C161.789201,23.0678311 162.464201,23.1128311 162.914201,23.9228311 Z" id="Shawn" transform="translate(125.343425, 27.024478) rotate(-12.000000) translate(-125.343425, -27.024478) "></path>
            </g>
        </g>
    </g>
</svg>